<svg width="330" height="330" xmlns="http://www.w3.org/2000/svg" fill="#666666" version="1.1" xml:space="preserve">
 <g>
  <title>Layer 1</title>
  <path stroke="null" id="XMLID_237_" d="m15,56.40001l300,0c8.284,0 15,-9.26808 15,-20.7s-6.716,-20.7 -15,-20.7l-300,0c-8.284,0 -15,9.26808 -15,20.7s6.716,20.7 15,20.7z"/>
  <path stroke="null" id="XMLID_238_" d="m315,144.3l-300,0c-8.284,0 -15,9.26808 -15,20.7s6.716,20.7 15,20.7l300,0c8.284,0 15,-9.26808 15,-20.7s-6.716,-20.7 -15,-20.7z"/>
  <path stroke="null" id="XMLID_239_" d="m315,270.60003l-300,0c-8.284,0 -15,9.26808 -15,20.7s6.716,20.7 15,20.7l300,0c8.284,0 15,-9.26808 15,-20.7s-6.716,-20.7 -15,-20.7z"/>
 </g>

</svg>