<?xml version="1.0" encoding="UTF-8"?>
<svg width="312px" height="312px" viewBox="0 0 312 312" version="1.1" xmlns="http://www.w3.org/2000/svg" xmlns:xlink="http://www.w3.org/1999/xlink">
    <title>moon</title>
    <g id="Page-1" stroke="none" stroke-width="1" fill="none" fill-rule="evenodd">
        <g id="Artboard" transform="translate(-2452.000000, -1365.000000)" fill="#FFE15A" fill-rule="nonzero">
            <g id="moon" transform="translate(2485.000000, 1390.000000)">
                <path d="M244.033026,190.3068 C241.671644,187.4138 237.706636,186.344267 234.217429,187.589133 C224.437076,191.078267 213.828477,192.866667 202.655965,192.866667 C149.207657,192.866667 105.733547,149.5944 105.733547,96.4333333 C105.733547,64.435 121.611201,34.6458667 148.203188,16.7268 C151.216594,14.6929333 152.66162,11.0284667 151.850996,7.50426667 C151.040372,3.98006667 148.132699,1.315 144.520136,0.789 C140.396528,0.192866667 136.290542,0 132.166934,0 C59.2812753,0 0,58.9821333 0,131.5 C0,204.017867 59.2812753,263 132.166934,263 C178.425361,263 220.507312,239.610533 244.702672,200.441067 C246.658743,197.267533 246.376787,193.217333 244.033026,190.3068 Z" id="Path"></path>
            </g>
        </g>
    </g>
</svg>