<svg xmlns="http://www.w3.org/2000/svg" viewBox="0 0 13.53 13.97"><defs><style>.cls-1{fill:#898989;}</style></defs><title>phone</title><g id="圖層_2" data-name="圖層 2"><g id="圖層_1-2" data-name="圖層 1"><path class="cls-1" d="M13.29,11.18,11.68,9.42a1.77,1.77,0,0,0-.48-.34c-.77-.21-1.6.69-1.6.69A1.35,1.35,0,0,1,8,10,9.85,9.85,0,0,1,5.82,8.22h0a12.53,12.53,0,0,1-1.94-2.6A1.35,1.35,0,0,1,4.19,4s.95-.78.78-1.56A1.81,1.81,0,0,0,4.66,2L3,.27a.84.84,0,0,0-1.22,0A4.85,4.85,0,0,0,.63,6.45a21.05,21.05,0,0,0,2.61,3.63A19.64,19.64,0,0,0,7,13.2a4.87,4.87,0,0,0,6.24-.8A.85.85,0,0,0,13.29,11.18Z"/></g></g></svg>